  0
SECTION
  2
HEADER
  9
$ACADVER
  1
AC1009
  9
$INSBASE
 10
0.0
 20
0.0
 30
0.0
  9
$EXTMIN
 10
0.0
 20
0.0
 30
0.0
  9
$EXTMAX
 10
0.0
 20
0.0
 30
0.0
  0
ENDSEC
  0
SECTION
  2
TABLES
  0
TABLE
  2
VPORT
 70
0
  0
ENDTAB
  0
TABLE
  2
LTYPE
 70
1
  0
LTYPE
  2
CONTINUOUS
 70
0
  3
Solid line
 72
65
 73
0
 40
0.0
  0
ENDTAB
  0
TABLE
  2
LAYER
 70
1
  0
LAYER
  2
0
 70
64
 62
7
  6
continuous
  0
ENDTAB
  0
TABLE
  2
STYLE
 70
1
  0
STYLE
  2
STANDARD
 70
0
 40
0
 41
1.0
 50
0.0
 71
0
 42
1
 3
ARIAL.TTF
 4

  0
ENDTAB
  0
TABLE
  2
VIEW
 70
0
  0
ENDTAB
  0
ENDSEC
  0
SECTION
  2
BLOCKS
  0
BLOCK
  8
0
  2
POCKET001
 70
0
 10
0.0
 20
0.0
 30
0.0
  3
POCKET001
  0
LINE
  8
0
 62
0
 10
-85.0
 20
65.0
 30
0.0
 11
-85.0
 21
35.0
 31
0.0
  0
LINE
  8
0
 62
0
 10
-1.57772181044e-30
 20
65.0
 30
0.0
 11
-85.0
 21
65.0
 31
0.0
  0
LINE
  8
0
 62
0
 10
-85.0
 20
35.0
 30
0.0
 11
-45.0
 21
35.0
 31
0.0
  0
LINE
  8
0
 62
0
 10
85.0
 20
65.0
 30
0.0
 11
0.0
 21
65.0
 31
0.0
  0
LINE
  8
0
 62
0
 10
-45.0
 20
35.0
 30
0.0
 11
-45.0
 21
-35.0
 31
0.0
  0
LINE
  8
0
 62
0
 10
85.0
 20
35.0
 30
0.0
 11
85.0
 21
65.0
 31
0.0
  0
LINE
  8
0
 62
0
 10
-45.0
 20
-35.0
 30
0.0
 11
-85.0
 21
-35.0
 31
0.0
  0
LINE
  8
0
 62
0
 10
45.0
 20
35.0
 30
0.0
 11
85.0
 21
35.0
 31
0.0
  0
LINE
  8
0
 62
0
 10
-85.0
 20
-35.0
 30
0.0
 11
-85.0
 21
-105.0
 31
0.0
  0
LINE
  8
0
 62
0
 10
45.0
 20
-35.0
 30
0.0
 11
45.0
 21
35.0
 31
0.0
  0
LINE
  8
0
 62
0
 10
-85.0
 20
-105.0
 30
0.0
 11
-35.0
 21
-155.0
 31
0.0
  0
LINE
  8
0
 62
0
 10
85.0
 20
-35.0
 30
0.0
 11
45.0
 21
-35.0
 31
0.0
  0
LINE
  8
0
 62
0
 10
-35.0
 20
-155.0
 30
0.0
 11
0.0
 21
-155.0
 31
0.0
  0
LINE
  8
0
 62
0
 10
85.0
 20
-105.0
 30
0.0
 11
85.0
 21
-35.0
 31
0.0
  0
LINE
  8
0
 62
0
 10
0.0
 20
-155.0
 30
0.0
 11
35.0
 21
-155.0
 31
0.0
  0
LINE
  8
0
 62
0
 10
35.0
 20
-155.0
 30
0.0
 11
85.0
 21
-105.0
 31
0.0
  0
CIRCLE
  8
0
 62
0
 10
15.0
 20
58.0
 30
0.0
 40
1.6
  0
CIRCLE
  8
0
 62
0
 10
0.0
 20
58.0
 30
0.0
 40
1.6
  0
CIRCLE
  8
0
 62
0
 10
-30.0
 20
58.0
 30
0.0
 40
1.6
  0
CIRCLE
  8
0
 62
0
 10
-15.0
 20
58.0
 30
0.0
 40
1.6
  0
CIRCLE
  8
0
 62
0
 10
-40.0
 20
42.5
 30
0.0
 40
2.1
  0
CIRCLE
  8
0
 62
0
 10
-40.0
 20
-42.5
 30
0.0
 40
2.1
  0
CIRCLE
  8
0
 62
0
 10
0.0
 20
0.0
 30
0.0
 40
2.1
  0
CIRCLE
  8
0
 62
0
 10
-45.0
 20
58.0
 30
0.0
 40
1.6
  0
CIRCLE
  8
0
 62
0
 10
-60.0
 20
58.0
 30
0.0
 40
1.6
  0
CIRCLE
  8
0
 62
0
 10
-67.7279220614
 20
-113.786796564
 30
0.0
 40
1.6
  0
CIRCLE
  8
0
 62
0
 10
-50.0
 20
-85.0
 30
0.0
 40
1.6
  0
CIRCLE
  8
0
 62
0
 10
-50.0
 20
-55.0
 30
0.0
 40
1.6
  0
CIRCLE
  8
0
 62
0
 10
50.0
 20
-85.0
 30
0.0
 40
1.6
  0
CIRCLE
  8
0
 62
0
 10
40.0
 20
-42.5
 30
0.0
 40
2.1
  0
CIRCLE
  8
0
 62
0
 10
50.0
 20
-55.0
 30
0.0
 40
1.6
  0
CIRCLE
  8
0
 62
0
 10
30.0
 20
58.0
 30
0.0
 40
1.6
  0
CIRCLE
  8
0
 62
0
 10
40.0
 20
42.5
 30
0.0
 40
2.1
  0
CIRCLE
  8
0
 62
0
 10
45.0
 20
58.0
 30
0.0
 40
1.6
  0
CIRCLE
  8
0
 62
0
 10
46.5147186258
 20
-135.0
 30
0.0
 40
1.6
  0
CIRCLE
  8
0
 62
0
 10
1.21612213096e-32
 20
-130.0
 30
0.0
 40
20.0
  0
CIRCLE
  8
0
 62
0
 10
-17.6776695297
 20
-147.67766953
 30
0.0
 40
1.6
  0
CIRCLE
  8
0
 62
0
 10
-17.6776695297
 20
-112.32233047
 30
0.0
 40
1.6
  0
CIRCLE
  8
0
 62
0
 10
17.6776695297
 20
-112.32233047
 30
0.0
 40
1.6
  0
CIRCLE
  8
0
 62
0
 10
17.6776695297
 20
-147.67766953
 30
0.0
 40
1.6
  0
CIRCLE
  8
0
 62
0
 10
-46.5147186258
 20
-135.0
 30
0.0
 40
1.6
  0
CIRCLE
  8
0
 62
0
 10
75.0
 20
43.0
 30
0.0
 40
1.6
  0
CIRCLE
  8
0
 62
0
 10
75.0
 20
58.0
 30
0.0
 40
1.6
  0
CIRCLE
  8
0
 62
0
 10
60.0
 20
58.0
 30
0.0
 40
1.6
  0
CIRCLE
  8
0
 62
0
 10
67.7279220614
 20
-113.786796564
 30
0.0
 40
1.6
  0
CIRCLE
  8
0
 62
0
 10
-75.0
 20
43.0
 30
0.0
 40
1.6
  0
CIRCLE
  8
0
 62
0
 10
-75.0
 20
58.0
 30
0.0
 40
1.6
  0
ENDBLK
  0
ENDSEC
  0
SECTION
  2
ENTITIES
  0
INSERT
  2
POCKET001
  8
0
 10
0.0
 20
0.0
 30
0.0
  0
ENDSEC
  0
EOF
